<?xml version="1.0" standalone="no"?>
<!DOCTYPE svg PUBLIC "-//W3C//DTD SVG 20010904//EN"
 "http://www.w3.org/TR/2001/REC-SVG-20010904/DTD/svg10.dtd">
<svg version="1.0" xmlns="http://www.w3.org/2000/svg"
 width="920.000000pt" height="920.000000pt" viewBox="0 0 920.000000 920.000000"
 preserveAspectRatio="xMidYMid meet">
<metadata>
Created by potrace 1.11, written by Peter Selinger 2001-2013
</metadata>
<g transform="translate(0.000000,920.000000) scale(0.100000,-0.100000)"
fill="#000000" stroke="none">
<path d="M4410 8039 c-719 -64 -1349 -319 -1915 -773 -137 -110 -380 -356
-496 -501 -427 -535 -667 -1112 -749 -1797 -23 -193 -21 -601 4 -778 71 -510
210 -923 447 -1331 385 -664 1015 -1201 1740 -1483 401 -156 871 -238 1314
-229 743 15 1397 218 1935 603 610 436 1037 1101 1214 1890 105 472 123 930
54 1438 l-22 162 -1628 0 -1628 0 0 -670 0 -670 938 0 c516 0 941 -2 944 -5 3
-3 0 -34 -8 -68 -37 -178 -129 -392 -241 -561 -94 -143 -291 -338 -438 -435
-261 -172 -560 -279 -905 -323 -140 -17 -442 -14 -575 6 -341 53 -656 186
-933 393 -104 78 -288 258 -372 363 -398 500 -553 1129 -429 1745 125 625 546
1177 1118 1469 551 280 1221 289 1771 23 129 -62 312 -184 403 -268 l69 -62
484 484 c266 266 484 487 484 490 0 12 -224 196 -338 278 -449 321 -952 517
-1520 592 -176 23 -560 33 -722 18z"/>
</g>
</svg>
